<svg xmlns="http://www.w3.org/2000/svg" viewBox="0 0 24 24">
  <path fill="currentColor" d="M12 .5A11.5 11.5 0 0 0 .5 12.18a11.7 11.7 0 0 0 7.86 11.14c.58.11.79-.26.79-.57v-2c-3.2.72-3.87-1.58-3.87-1.58c-.53-1.37-1.3-1.73-1.3-1.73c-1.05-.73.08-.72.08-.72c1.17.09 1.79 1.22 1.79 1.22c1.03 1.8 2.72 1.28 3.38.98c.1-.77.4-1.28.72-1.58c-2.56-.3-5.24-1.31-5.24-5.82c0-1.29.45-2.34 1.2-3.16c-.12-.3-.52-1.52.11-3.17c0 0 .98-.32 3.2 1.2a10.9 10.9 0 0 1 5.82 0c2.22-1.52 3.2-1.2 3.2-1.2c.63 1.65.23 2.87.11 3.17a4.58 4.58 0 0 1 1.2 3.16c0 4.52-2.69 5.51-5.26 5.81c.41.37.78 1.08.78 2.2v3.27c0 .31.21.68.8.57a11.7 11.7 0 0 0 7.85-11.14A11.5 11.5 0 0 0 12 .5"/>
</svg>